<svg width="741" height="1040" xmlns="http://www.w3.org/2000/svg" xmlns:xlink="http://www.w3.org/1999/xlink" xml:space="preserve" overflow="hidden"><defs><clipPath id="clip0"><rect x="2196" y="625" width="741" height="1040"/></clipPath><clipPath id="clip1"><rect x="2296" y="752" width="537" height="535"/></clipPath><clipPath id="clip2"><rect x="2296" y="752" width="537" height="535"/></clipPath><clipPath id="clip3"><rect x="2296" y="752" width="537" height="535"/></clipPath></defs><g clip-path="url(#clip0)" transform="translate(-2196 -625)"><path d="M2560.51 636.554C2433.54 640.93 2322.1 696.715 2256.07 809.894 2189.28 924.363 2192.66 1067.78 2258.29 1177.32 2279.31 1212.4 2385.34 1332.08 2408.88 1365.67 2460.23 1443.36 2533.12 1595.4 2566.43 1643.5 2592.93 1597.63 2672.73 1443.14 2724.11 1365.4 2747.65 1331.81 2853.68 1212.13 2874.7 1177.05 2940.33 1067.52 2943.73 924.095 2876.94 809.626 2810.91 696.452 2701.29 640.88 2574.32 636.5L2560.51 636.554Z" stroke="#1F4E79" stroke-width="22.9167" stroke-miterlimit="8" fill="#0070C0" fill-rule="evenodd"/><g clip-path="url(#clip1)"><g clip-path="url(#clip2)"><g clip-path="url(#clip3)"><path d="M2497.62 1264.71C2491.31 1264.71 2486.02 1262.57 2481.74 1258.3 2477.47 1254.03 2475.33 1248.73 2475.33 1242.42L2475.33 974.917C2475.33 968.601 2477.47 963.307 2481.74 959.034 2486.02 954.761 2491.31 952.625 2497.62 952.625L2631.38 952.625C2637.69 952.625 2642.99 954.761 2647.26 959.034 2651.53 963.307 2653.67 968.601 2653.67 974.917L2653.67 1242.42C2653.67 1248.73 2651.53 1254.03 2647.26 1258.3 2642.99 1262.57 2637.69 1264.71 2631.38 1264.71L2497.62 1264.71ZM2564.5 1069.66C2572.3 1069.66 2578.9 1066.96 2584.28 1061.58 2589.67 1056.19 2592.36 1049.59 2592.36 1041.79 2592.36 1033.99 2589.67 1027.4 2584.28 1022.01 2578.9 1016.62 2572.3 1013.93 2564.5 1013.93 2556.7 1013.93 2550.1 1016.62 2544.72 1022.01 2539.33 1027.4 2536.64 1033.99 2536.64 1041.79 2536.64 1049.59 2539.33 1056.19 2544.72 1061.58 2550.1 1066.96 2556.7 1069.66 2564.5 1069.66ZM2485.36 918.073 2454.16 886.865C2469.02 872.003 2485.92 860.672 2504.87 852.87 2523.82 845.068 2543.69 841.167 2564.5 841.167 2585.31 841.167 2605.18 845.068 2624.13 852.87 2643.08 860.672 2659.98 872.003 2674.84 886.865L2643.64 918.073C2632.86 907.299 2620.69 899.218 2607.13 893.831 2593.57 888.443 2579.36 885.75 2564.5 885.75 2549.64 885.75 2535.43 888.443 2521.87 893.831 2508.31 899.218 2496.14 907.299 2485.36 918.073ZM2422.95 855.656 2390.62 823.333C2414.03 800.67 2440.69 783.115 2470.6 770.669 2500.5 758.223 2531.81 752 2564.5 752 2597.19 752 2628.5 758.223 2658.4 770.669 2688.31 783.115 2714.6 801.042 2737.26 824.448L2706.05 855.656C2687.48 836.337 2665.93 821.662 2641.41 811.63 2616.89 801.599 2591.25 796.583 2564.5 796.583 2537.75 796.583 2512.11 801.599 2487.59 811.63 2463.07 821.662 2441.52 836.337 2422.95 855.656ZM2519.92 1220.12 2609.08 1220.12 2609.08 997.208 2519.92 997.208 2519.92 1220.12ZM2519.92 1220.12 2609.08 1220.12 2519.92 1220.12Z" fill="#F2F2F2"/></g></g></g></g></svg>