<svg width="741" height="1040" xmlns="http://www.w3.org/2000/svg" xmlns:xlink="http://www.w3.org/1999/xlink" xml:space="preserve" overflow="hidden"><defs><clipPath id="clip0"><rect x="2196" y="625" width="741" height="1040"/></clipPath><clipPath id="clip1"><rect x="2310" y="782" width="499" height="499"/></clipPath><clipPath id="clip2"><rect x="2310" y="782" width="499" height="499"/></clipPath><clipPath id="clip3"><rect x="2310" y="782" width="499" height="499"/></clipPath></defs><g clip-path="url(#clip0)" transform="translate(-2196 -625)"><path d="M2560.51 636.554C2433.54 640.93 2322.1 696.715 2256.07 809.894 2189.28 924.363 2192.66 1067.78 2258.29 1177.32 2279.31 1212.4 2385.34 1332.08 2408.88 1365.67 2460.23 1443.36 2533.12 1595.4 2566.43 1643.5 2592.93 1597.63 2672.73 1443.14 2724.11 1365.4 2747.65 1331.81 2853.68 1212.13 2874.7 1177.05 2940.33 1067.52 2943.73 924.095 2876.94 809.626 2810.91 696.452 2701.29 640.88 2574.32 636.5L2560.51 636.554Z" stroke="#385723" stroke-width="22.9167" stroke-miterlimit="8" fill="#548235" fill-rule="evenodd"/><g clip-path="url(#clip1)"><g clip-path="url(#clip2)"><g clip-path="url(#clip3)"><path d="M2529.95 1238.5C2512.31 1238.5 2498.91 1233.23 2489.75 1222.68 2480.58 1212.13 2476 1200.11 2476 1186.63 2476 1177.63 2477.99 1168.9 2481.97 1160.43 2485.94 1151.96 2492.08 1144.95 2500.38 1139.42 2507.99 1134.58 2514.13 1128.35 2518.8 1120.74 2523.47 1113.14 2526.66 1105.01 2528.39 1096.36L2522.17 1093.25C2520.09 1092.21 2518.19 1091 2516.46 1089.62L2468.74 1106.74C2462.86 1108.81 2457.15 1110.54 2451.62 1111.93 2446.09 1113.31 2440.38 1114 2434.5 1114 2412.71 1114 2393.43 1104.49 2376.66 1085.47 2359.89 1066.45 2351.5 1038.61 2351.5 1001.95 2351.5 984.313 2356.77 970.912 2367.32 961.747 2377.87 952.582 2389.71 948 2402.86 948 2411.85 948 2420.67 949.988 2429.31 953.966 2437.96 957.943 2445.05 964.081 2450.58 972.381 2455.42 979.99 2461.65 986.128 2469.26 990.797 2476.86 995.466 2484.99 998.665 2493.64 1000.39L2496.75 994.169C2497.79 992.094 2499 990.192 2500.38 988.463L2483.26 940.738C2481.19 934.859 2479.46 929.152 2478.07 923.619 2476.69 918.085 2476 912.552 2476 907.019 2476 884.885 2485.51 865.432 2504.53 848.659 2523.55 831.887 2551.39 823.5 2588.05 823.5 2605.69 823.5 2619.09 828.774 2628.25 839.322 2637.42 849.87 2642 861.715 2642 874.856 2642 883.848 2640.01 892.667 2636.03 901.312 2632.06 909.958 2625.92 917.048 2617.62 922.581 2610.01 927.423 2603.87 933.648 2599.2 941.256 2594.53 948.865 2591.34 956.992 2589.61 965.638L2595.83 968.75C2597.91 969.788 2599.81 970.998 2601.54 972.381L2649.26 954.744C2655.14 952.669 2660.76 951.026 2666.12 949.816 2671.48 948.605 2677.1 948 2682.98 948 2710.99 948 2731.92 959.585 2745.75 982.756 2759.58 1005.93 2766.5 1031.69 2766.5 1060.05 2766.5 1077.69 2760.97 1091.09 2749.9 1100.25 2738.83 1109.42 2726.56 1114 2713.07 1114 2704.42 1114 2696.04 1112.01 2687.91 1108.03 2679.78 1104.06 2672.95 1097.92 2667.42 1089.62 2662.58 1082.01 2656.35 1075.87 2648.74 1071.2 2641.14 1066.53 2633.01 1063.34 2624.36 1061.61L2621.25 1067.83C2620.21 1069.91 2619 1071.81 2617.62 1073.54L2634.74 1121.26C2636.81 1126.8 2638.54 1132.07 2639.93 1137.08 2641.31 1142.1 2642 1147.37 2642 1152.91 2642.35 1175.39 2633.01 1195.27 2613.99 1212.56 2594.97 1229.85 2566.95 1238.5 2529.95 1238.5ZM2559 1062.12C2567.65 1062.12 2574.99 1059.1 2581.05 1053.05 2587.1 1046.99 2590.12 1039.65 2590.12 1031 2590.12 1022.35 2587.1 1015.01 2581.05 1008.95 2574.99 1002.9 2567.65 999.875 2559 999.875 2550.35 999.875 2543.01 1002.9 2536.95 1008.95 2530.9 1015.01 2527.88 1022.35 2527.88 1031 2527.88 1039.65 2530.9 1046.99 2536.95 1053.05 2543.01 1059.1 2550.35 1062.12 2559 1062.12ZM2535.14 962.525C2537.21 961.834 2539.37 961.228 2541.62 960.709 2543.87 960.191 2546.03 959.759 2548.11 959.413 2550.87 944.888 2556.15 931.4 2563.93 918.95 2571.71 906.5 2582 896.125 2594.79 887.825 2596.52 886.442 2597.91 884.713 2598.94 882.638 2599.98 880.562 2600.5 877.969 2600.5 874.856 2600.5 872.09 2599.46 869.755 2597.39 867.853 2595.31 865.951 2592.2 865 2588.05 865 2574.91 865 2560.04 867.853 2543.44 873.559 2526.84 879.266 2518.19 890.419 2517.5 907.019 2517.5 910.131 2517.93 913.071 2518.8 915.838 2519.66 918.604 2520.44 921.198 2521.13 923.619L2535.14 962.525ZM2434.5 1072.5C2439.34 1072.5 2445.05 1071.29 2451.62 1068.87L2490.53 1054.86C2489.83 1052.79 2489.23 1050.63 2488.71 1048.38 2488.19 1046.13 2487.76 1043.97 2487.41 1041.89 2472.89 1039.13 2459.4 1033.85 2446.95 1026.07 2434.5 1018.29 2424.12 1008 2415.82 995.206 2414.44 993.477 2412.63 992.094 2410.38 991.056 2408.13 990.019 2405.62 989.5 2402.86 989.5 2399.74 989.5 2397.32 990.538 2395.59 992.613 2393.86 994.688 2393 997.8 2393 1001.95 2393 1020.63 2396.54 1037.05 2403.63 1051.23 2410.72 1065.41 2421.01 1072.5 2434.5 1072.5ZM2529.95 1197C2546.2 1197 2562.2 1193.71 2577.93 1187.14 2593.67 1180.57 2601.19 1169.16 2600.5 1152.91 2600.5 1150.14 2600.07 1147.55 2599.2 1145.13 2598.34 1142.7 2597.56 1140.46 2596.87 1138.38L2582.86 1099.48C2580.79 1100.17 2578.63 1100.77 2576.38 1101.29 2574.13 1101.81 2571.97 1102.24 2569.89 1102.59 2567.13 1117.11 2561.85 1130.6 2554.07 1143.05 2546.29 1155.5 2536 1165.88 2523.21 1174.18 2521.48 1175.56 2520.01 1177.37 2518.8 1179.62 2517.59 1181.87 2517.15 1184.2 2517.5 1186.63 2517.85 1189.39 2518.88 1191.81 2520.61 1193.89 2522.34 1195.96 2525.45 1197 2529.95 1197ZM2713.07 1072.5C2716.18 1072.5 2718.95 1071.64 2721.37 1069.91 2723.79 1068.18 2725 1064.89 2725 1060.05 2725 1046.91 2722.23 1031.95 2716.7 1015.18 2711.17 998.405 2699.93 989.846 2682.98 989.5 2679.87 989.5 2676.93 989.846 2674.16 990.538 2671.4 991.229 2668.8 991.921 2666.38 992.613L2627.48 1007.14C2628.17 1009.21 2628.77 1011.37 2629.29 1013.62 2629.81 1015.87 2630.24 1018.03 2630.59 1020.11 2645.11 1022.87 2658.6 1028.15 2671.05 1035.93 2683.5 1043.71 2693.88 1054 2702.18 1066.79 2703.21 1068.52 2704.77 1069.91 2706.84 1070.94 2708.92 1071.98 2710.99 1072.5 2713.07 1072.5Z" fill="#FFFFFF"/></g></g></g></g></svg>