<svg width="746" height="1049" xmlns="http://www.w3.org/2000/svg" xmlns:xlink="http://www.w3.org/1999/xlink" xml:space="preserve" overflow="hidden"><defs><clipPath id="clip0"><rect x="2193" y="621" width="746" height="1049"/></clipPath></defs><g clip-path="url(#clip0)" transform="translate(-2193 -621)"><path d="M2560.01 636.053C2433.04 640.43 2321.6 696.215 2255.57 809.394 2188.78 923.862 2192.16 1067.28 2257.79 1176.82 2278.81 1211.9 2384.84 1331.58 2408.38 1365.17 2459.73 1442.86 2532.62 1594.9 2565.93 1643 2592.43 1597.13 2672.23 1442.64 2723.61 1364.9 2747.15 1331.31 2853.18 1211.63 2874.2 1176.55 2939.83 1067.02 2943.23 923.595 2876.44 809.126 2810.41 695.952 2700.79 640.38 2573.82 636L2560.01 636.053Z" stroke="#CD2923" stroke-width="27.5" stroke-miterlimit="8" fill="#EA4335" fill-rule="evenodd"/><path d="M2707 1004C2707 1080.77 2643.87 1143 2566 1143 2488.13 1143 2425 1080.77 2425 1004 2425 927.232 2488.13 865 2566 865 2643.87 865 2707 927.232 2707 1004Z" fill="#B41412" fill-rule="evenodd"/></g></svg>